<?xml version="1.0" encoding="UTF-8"?>
<!-- Uploaded to: SVG Repo, www.svgrepo.com, Generator: SVG Repo Mixer Tools -->
<svg version="1.1" xmlns="http://www.w3.org/2000/svg" viewBox="0 0 511.981 511.981">
	<path style="fill:#424953;" d="M159.994,21.34c-11.733,0-21.335,9.593-21.335,21.327v109.223c0,11.734,9.602,21.327,21.335,21.327l0,0c11.734,0,21.335-9.593,21.335-21.327V85.337c0-11.734,9.593-21.335,21.327-21.335h106.676c11.719,0,21.312,9.601,21.312,21.335v66.552c0,11.734,9.609,21.327,21.344,21.327c11.733,0,21.342-9.593,21.342-21.327V42.667c0-11.734-9.608-21.327-21.342-21.327C351.988,21.34,159.994,21.34,159.994,21.34z"/>
	<path style="fill:#424953;" d="M490.638,479.987c0,5.891-4.765,10.655-10.655,10.655H31.999c-5.89,0-10.664-4.765-10.664-10.655V202.66c0-5.89,4.773-10.664,10.664-10.664h447.984c5.891,0,10.655,4.773,10.655,10.664V479.987z"/>
	<path style="fill:#646C77;" d="M511.981,287.993c0,5.891-4.781,10.656-10.655,10.656c0,0-94.199,21.343-245.335,21.343c-151.135,0-245.327-21.343-245.327-21.343C4.773,298.65,0,293.884,0,287.993V117.336c0-5.891,4.773-10.672,10.664-10.672h490.662c5.874,0,10.655,4.781,10.655,10.672L511.981,287.993L511.981,287.993z"/>
	<rect x="223.991" y="266.661" style="fill:#FECD57;" width="63.998" height="85.33"/>
	<path style="fill:#F5BA45;" d="M287.99,255.994h-63.998c-5.89,0-10.663,4.773-10.663,10.664v85.333c0,5.89,4.773,10.655,10.663,10.655h63.998c5.891,0,10.656-4.766,10.656-10.655v-85.333C298.646,260.768,293.881,255.994,287.99,255.994z M277.335,341.336h-42.679v-63.997h42.679V341.336z"/>
	<path style="fill:#F5BA45;" d="M255.991,287.993c-5.89,0-10.664,4.781-10.664,10.656v21.343c0,5.89,4.773,10.655,10.664,10.655c5.891,0,10.664-4.766,10.664-10.655V298.65C266.655,292.775,261.882,287.993,255.991,287.993z"/>
</svg>