<?xml version="1.0" encoding="UTF-8" standalone="no"?>
<!DOCTYPE svg PUBLIC "-//W3C//DTD SVG 1.1//EN" "http://www.w3.org/Graphics/SVG/1.1/DTD/svg11.dtd">
<svg width="100%" height="100%" viewBox="0 0 1418 1182" version="1.1" xmlns="http://www.w3.org/2000/svg" xmlns:xlink="http://www.w3.org/1999/xlink" xml:space="preserve" xmlns:serif="http://www.serif.com/" style="fill-rule:evenodd;clip-rule:evenodd;stroke-linejoin:round;stroke-miterlimit:2;">
    <g transform="matrix(1,0,0,1,-243.084,-735.961)">
        <path d="M874.484,925.133L884.321,878.88L1114.22,878.88C1212.56,878.88 1290.71,905.159 1348.7,957.717C1406.68,1010.27 1435.67,1082.33 1435.67,1173.88C1435.67,1260.35 1417.36,1336.98 1380.74,1403.78C1344.12,1470.58 1292.75,1521.36 1226.63,1556.12C1160.51,1590.87 1082.35,1608.25 992.15,1608.25L853.551,1608.25C784.024,1644.46 708.128,1662.56 625.863,1662.56C560.759,1662.56 503.538,1649.08 454.202,1622.12C404.865,1595.16 367.057,1557.02 340.778,1507.68C314.499,1458.35 301.359,1401.97 301.359,1338.56C301.359,1255.49 319.331,1180.89 355.274,1114.77C391.217,1048.65 442.164,997.614 508.116,961.671C574.068,925.728 651.294,907.757 739.795,907.757C785.221,907.757 830.121,913.549 874.484,925.133ZM851.29,1034.18L804.4,1254.64L645.699,1254.64L623.32,1358.4L782.011,1358.4L763.699,1446L744.007,1538.59C712.572,1550.03 678.617,1555.75 642.139,1555.75C577.374,1555.75 526.257,1535.57 488.788,1495.22C451.319,1454.87 432.585,1399.77 432.585,1329.92C432.585,1268.2 444.877,1213.44 469.46,1165.63C494.044,1117.82 528.97,1080.77 574.237,1054.5C619.505,1028.22 671.639,1015.08 730.64,1015.08C768.278,1015.08 804.645,1020.25 839.74,1030.59C843.654,1031.74 847.504,1032.94 851.29,1034.18ZM1303.94,1183.55C1303.94,1118.44 1285.12,1069.02 1247.48,1035.28C1209.84,1001.54 1155.25,984.675 1083.7,984.675L988.081,984.675L877.709,1502.96L995.71,1502.96C1057.42,1502.96 1111.68,1489.74 1158.47,1463.29C1205.26,1436.84 1241.21,1399.12 1266.3,1350.12C1291.39,1301.12 1303.94,1245.6 1303.94,1183.55Z" style="fill:url(#_Radial1);"/>
        <g transform="matrix(2.33178,0,0,2.33178,-1867.9,-2126.47)">
            <circle cx="1425.47" cy="1610.13" r="62.677" style="fill:url(#_Linear2);"/>
        </g>
    </g>
    <defs>
        <radialGradient id="_Radial1" cx="0" cy="0" r="1" gradientUnits="userSpaceOnUse" gradientTransform="matrix(1134.31,0,0,1134.31,301.359,1270.72)"><stop offset="0" style="stop-color:rgb(99,102,241);stop-opacity:1"/><stop offset="0.51" style="stop-color:rgb(129,140,248);stop-opacity:1"/><stop offset="1" style="stop-color:rgb(6,182,212);stop-opacity:1"/></radialGradient>
        <linearGradient id="_Linear2" x1="0" y1="0" x2="1" y2="0" gradientUnits="userSpaceOnUse" gradientTransform="matrix(125.354,0,0,125.354,1362.8,1610.13)"><stop offset="0" style="stop-color:rgb(99,102,241);stop-opacity:1"/><stop offset="0.49" style="stop-color:rgb(129,140,248);stop-opacity:1"/><stop offset="1" style="stop-color:rgb(6,182,212);stop-opacity:1"/></linearGradient>
    </defs>
</svg>
